<?xml version="1.0" encoding="UTF-8"?>
<svg version="1.1" xmlns="http://www.w3.org/2000/svg" width="83" height="57">
<path d="M0 0 C27.39 0 54.78 0 83 0 C83 18.81 83 37.62 83 57 C55.61 57 28.22 57 0 57 C0 38.19 0 19.38 0 0 Z " fill="#FEFEFE" transform="translate(0,0)"/>
<path d="M0 0 C17.16 0 34.32 0 52 0 C52 4.95 52 9.9 52 15 C34.84 15 17.68 15 0 15 C0 10.05 0 5.1 0 0 Z " fill="#E3232A" transform="translate(1,40)"/>
<path d="M0 0 C17.16 0 34.32 0 52 0 C52 4.95 52 9.9 52 15 C34.84 15 17.68 15 0 15 C0 10.05 0 5.1 0 0 Z " fill="#E32128" transform="translate(28,22)"/>
<path d="M0 0 C8.25 0 16.5 0 25 0 C25 4.95 25 9.9 25 15 C16.75 15 8.5 15 0 15 C0 10.05 0 5.1 0 0 Z " fill="#E3242B" transform="translate(55,40)"/>
<path d="M0 0 C7.59 0 15.18 0 23 0 C23 4.95 23 9.9 23 15 C15.41 15 7.82 15 0 15 C0 10.05 0 5.1 0 0 Z " fill="#E32128" transform="translate(57,3)"/>
</svg>
